<svg height="448pt" viewBox="0 0 448 448" width="448pt" xmlns="http://www.w3.org/2000/svg"><path d="m132.945312 304h182.109376l-91.054688-182.113281zm91.054688-32c-4.417969 0-8-3.582031-8-8s3.582031-8 8-8 8 3.582031 8 8-3.582031 8-8 8zm8-88v48c0 4.417969-3.582031 8-8 8s-8-3.582031-8-8v-48c0-4.417969 3.582031-8 8-8s8 3.582031 8 8zm0 0"/><path d="m224 0c-123.710938 0-224 100.289062-224 224s100.289062 224 224 224 224-100.289062 224-224c-.140625-123.652344-100.347656-223.859375-224-224zm110.808594 316.199219c-1.457032 2.363281-4.035156 3.800781-6.808594 3.800781h-208c-2.773438 0-5.347656-1.433594-6.808594-3.792969-1.457031-2.355469-1.589844-5.300781-.351562-7.78125l104-208c1.503906-2.523437 4.222656-4.070312 7.160156-4.070312s5.65625 1.546875 7.160156 4.070312l104 208c1.238282 2.476563 1.101563 5.417969-.351562 7.773438zm0 0"/></svg>