<svg height="511pt" viewBox="0 -76 511.99953 511" width="511pt" xmlns="http://www.w3.org/2000/svg"><path d="m302.34375 10.5c-61.042969 0-134.648438 29.6875-165.132812 74.414062-62.136719 7.246094-110.210938 56.679688-110.210938 116.585938 0 64.894531 56.410156 117.5 126 117.5 16.238281 0 31.757812-2.867188 46.007812-8.082031 24.6875 12.789062 53.09375 20.082031 83.332032 20.082031 94.90625 0 181.84375-41.746094 181.84375-130.25s-66.933594-190.25-161.839844-190.25zm0 0" fill="#fa9600"/><path d="m427.648438 350h-343.296876c-21.054687 0-40.300781-11.894531-49.714843-30.726562l-24.636719-49.273438h492l-24.636719 49.273438c-9.417969 18.832031-28.664062 30.726562-49.714843 30.726562zm0 0" fill="#5ad2e6"/><path d="m478.679688 43.171875c3.035156-7.390625 1.847656-17.324219-2.597657-23.867187-6.203125-9.140626-18.640625-11.519532-27.78125-5.316407-9.136719 6.203125-11.519531 18.636719-5.316406 27.777344l-68.675781 46.613281 22.464844 33.097656 68.675781-46.613281c6.203125 9.140625 18.640625 11.519531 27.78125 5.316407 9.136719-6.203126 11.519531-18.640626 5.316406-27.777344-4.441406-6.546875-12.371094-10.046875-19.867187-9.230469zm0 0" fill="#fad79b"/><path d="m248.191406 198.148438c-21.710937-31.988282-14.308594-74.890626 16.539063-95.828126 30.847656-20.933593 110.683593-37.246093 132.394531-5.257812s-22.925781 100.164062-53.773438 121.097656c-30.847656 20.9375-73.453124 11.976563-95.160156-20.011718zm0 0" fill="#fa9600"/><path d="m510.507812 264.742188c-1.824218-2.949219-5.042968-4.742188-8.507812-4.742188h-42.292969c9.550781-17.597656 14.480469-37.492188 14.480469-59.25 0-33.945312-9.5625-70.03125-26.378906-101.828125l16.398437-11.132813c9.953125 7.316407 23.851563 7.988282 34.640625.664063 13.6875-9.289063 17.265625-27.980469 7.976563-41.667969-3.96875-5.84375-9.855469-10.109375-16.445313-12.226562.101563-7.367188-1.964844-14.898438-6.019531-20.871094-9.1875-13.535156-28.125-17.167969-41.667969-7.976562-10.320312 7.003906-15.363281 20.382812-12.1875 32.441406l-17.769531 12.0625c-31.179687-32.207032-69.730469-49.714844-110.390625-49.714844-31.757812 0-66.570312 7.554688-98.019531 21.269531-31.367188 13.675781-56.996094 32.667969-72.730469 53.804688-65.640625 9.722656-114.59375 63.125-114.59375 125.925781 0 21.074219 5.488281 40.96875 15.183594 58.5h-22.183594c-3.464844 0-6.683594 1.792969-8.507812 4.742188-1.820313 2.949218-1.988282 6.628906-.4375 9.730468l24.640624 49.273438c11.179688 22.363281 33.65625 36.253906 58.65625 36.253906h343.296876c25 0 47.476562-13.890625 58.65625-36.253906l24.640624-49.273438c1.546876-3.101562 1.382813-6.78125-.4375-9.730468zm-61.90625-214.703126c4.570313-3.097656 5.761719-9.316406 2.660157-13.886718-3.089844-4.558594-1.871094-10.820313 2.65625-13.890625 4.546875-3.082031 10.8125-1.878907 13.890625 2.65625 2.640625 3.890625 3.351562 10.238281 1.621094 14.453125-1.339844 3.261718-.863282 6.988281 1.257812 9.808594 2.117188 2.820312 5.574219 4.3125 9.074219 3.933593 3.992187-.425781 8.222656 1.53125 10.507812 4.902344 3.09375 4.558594 1.871094 10.820313-2.65625 13.890625-4.550781 3.089844-10.8125 1.878906-13.890625-2.660156-1.488281-2.191406-3.789062-3.707032-6.394531-4.203125-2.601563-.503907-5.300781.058593-7.496094 1.546875l-49.867187 33.847656c-1.167969-3.214844-2.683594-6.21875-4.566406-8.988281-1.878907-2.769531-4.109376-5.292969-6.667969-7.5625zm-59.75 52.640626c7.390626 10.890624 4.558594 30.742187-7.777343 54.464843-11.035157 21.226563-28.855469 42.914063-43.339844 52.742188-26.824219 18.207031-63.527344 8.792969-81.269531-17.355469-17.769532-26.183594-12.882813-63.773438 13.882812-81.933594 14.480469-9.828125 41.214844-18.382812 65.019532-20.800781 26.59375-2.710937 46.09375 1.992187 53.484374 12.882813zm-251.433593-7.539063c.820312-.101563 23.164062-2.210937 33.511719-3.179687 5.414062-.507813 9.511718-5.507813 9.03125-10.886719-.941407-10.511719-11.722657-8.957031-19.085938-8.265625 13.339844-12.519532 30.960938-23.777344 51.441406-32.707032 28.984375-12.640624 60.957032-19.601562 90.027344-19.601562 35.878906 0 68.011719 16.226562 93.375 41.257812l-16.769531 11.386719c-12.386719-3.90625-27.792969-5.058593-45.605469-3.246093-27.1875 2.761718-57.015625 12.46875-74.226562 24.148437-35.585938 24.152344-42.878907 74.828125-19.203126 109.71875 23.382813 34.449219 73.820313 46.582031 109.054688 22.667969 17.210938-11.683594 37.242188-35.820313 49.851562-60.0625 8.257813-15.886719 12.878907-30.628906 13.824219-43.582032l18.484375-12.546874c14.707032 28.234374 23.058594 60.015624 23.058594 90.507812 0 22.570312-6 42.371094-17.875 59.25h-380.582031c-11.839844-16.847656-18.730469-36.941406-18.730469-58.5 0-54.078125 47.929688-100 100.417969-106.359375zm331 219.664063c-7.769531 15.539062-23.394531 25.195312-40.769531 25.195312h-343.296876c-15.34375 0-29.3125-7.539062-37.722656-20h43.371094c5.507812 0 10-4.492188 10-10 0-5.511719-4.492188-10-10-10h-53.820312l-10-20h459.640624zm0 0"/><path d="m130 320c5.519531 0 10-4.492188 10-10 0-5.511719-4.480469-10-10-10-5.511719 0-10 4.488281-10 10 0 5.507812 4.488281 10 10 10zm0 0"/><path d="m72 207c5.507812 0 10-4.492188 10-10 0-14.691406 6.351562-28.679688 17.417969-38.390625 2.011719-1.761719 3.222656-4.199219 3.402343-6.859375.167969-2.671875-.699218-5.242188-2.460937-7.25-1.890625-2.171875-4.640625-3.421875-7.519531-3.421875-2.429688 0-4.769532.882813-6.589844 2.480469-15.410156 13.480468-24.25 32.960937-24.25 53.441406 0 5.507812 4.488281 10 10 10zm0 0"/><path d="m129.140625 146.121094c.21875 0 .429687-.011719.628906-.023438 5.5-.339844 9.699219-5.097656 9.359375-10.597656-.328125-5.261719-4.710937-9.382812-9.96875-9.382812-.210937 0-.429687.011718-.640625.023437-5.5.339844-9.699219 5.097656-9.351562 10.597656.320312 5.261719 4.703125 9.382813 9.972656 9.382813zm0 0"/><path d="m318.179688 113.609375c-1.171876 0-2.320313.199219-3.421876.601563-7.667968 2.808593-14.609374 6.25-20.085937 9.957031-4.539063 3.074219-5.765625 9.347656-2.664063 13.890625 3.101563 4.542968 9.335938 5.742187 13.902344 2.648437 4.011719-2.726562 9.730469-5.539062 15.699219-7.707031 5.171875-1.882812 7.851563-7.640625 5.972656-12.820312-1.441406-3.929688-5.210937-6.570313-9.402343-6.570313zm0 0"/><path d="m348.71875 124.390625c1.320312 2.320313 3.472656 3.988281 6.050781 4.6875.871094.230469 1.75.351563 2.640625.351563 4.488282 0 8.449219-3.03125 9.640625-7.371094.699219-2.578125.359375-5.269532-.96875-7.589844-1.320312-2.320312-3.472656-3.976562-6.050781-4.6875-.859375-.230469-1.75-.351562-2.640625-.351562-4.492187 0-8.449219 3.03125-9.640625 7.371093-.699219 2.578125-.359375 5.269531.96875 7.589844zm0 0"/></svg>