<svg height="512pt" viewBox="-66 0 512 512" width="512pt" xmlns="http://www.w3.org/2000/svg"><path d="m339.898438 192.519531h-.007813l-24.890625-39.519531h-247l-27.890625 39.519531h-.007813c-17.53125 6.152344-30.101562 22.851563-30.101562 42.480469 0 24.851562 20.148438 45 45 45h270c24.851562 0 45-20.148438 45-45 0-19.628906-12.570312-36.328125-30.101562-42.480469zm0 0" fill="#fed2a4"/><path d="m340 280c16.570312 0 30 13.429688 30 30s-13.429688 30-30 30c-59.40625 0-237.398438 0-300 0-16.570312 0-30-13.429688-30-30s13.429688-30 30-30zm0 0" fill="#fff4ca"/><path d="m340 160s-.039062 31.691406-.109375 32.519531c-1.28125 15.390625-14.171875 27.480469-29.890625 27.480469-16.570312 0-30-13.429688-30-30s-13.429688-30-30-30-30 13.429688-30 30-13.429688 30-30 30-30-13.429688-30-30-13.429688-30-30-30-30 13.429688-30 30-13.429688 30-30 30c-15.71875 0-28.609375-12.089844-29.890625-27.480469-.070313-.828125-.109375-1.667969-.109375-2.519531v-22.21875c0-79.109375 57.761719-150.339844 136.570312-157.203125 88.890626-7.71875 163.429688 62.140625 163.429688 149.421875zm0 0" fill="#ffa2c3"/><path d="m40 340 25.179688 137.878906c2.800781 14.03125 15.109374 24.121094 29.410156 24.121094h190.820312c14.300782 0 26.609375-10.089844 29.410156-24.121094l25.179688-137.878906c-59.40625 0-237.398438 0-300 0zm0 0" fill="#ff637b"/><path d="m280 120c0 5.523438-4.476562 10-10 10s-10-4.476562-10-10 4.476562-10 10-10 10 4.476562 10 10zm0 0"/><path d="m240 80c0 5.523438-4.476562 10-10 10s-10-4.476562-10-10 4.476562-10 10-10 10 4.476562 10 10zm0 0"/><path d="m200 50c0 5.523438-4.476562 10-10 10s-10-4.476562-10-10 4.476562-10 10-10 10 4.476562 10 10zm0 0"/><path d="m200 120c0 5.523438-4.476562 10-10 10s-10-4.476562-10-10 4.476562-10 10-10 10 4.476562 10 10zm0 0"/><path d="m160 80c0 5.523438-4.476562 10-10 10s-10-4.476562-10-10 4.476562-10 10-10 10 4.476562 10 10zm0 0"/><path d="m120 120c0 5.523438-4.476562 10-10 10s-10-4.476562-10-10 4.476562-10 10-10 10 4.476562 10 10zm0 0"/><path d="m380 235c0-20.839844-11.800781-39.703125-30-48.996094v-26.003906c0-72.738281-48.226562-132.890625-112.535156-152.839844-5.273438-1.636718-10.878906 1.3125-12.515625 6.585938-1.636719 5.277344 1.3125 10.878906 6.585937 12.515625 58.894532 18.273437 98.464844 72.015625 98.464844 133.738281v30c0 11.027344-8.972656 20-20 20s-20-8.972656-20-20c0-22.054688-17.945312-40-40-40s-40 17.945312-40 40c0 11.027344-8.972656 20-20 20s-20-8.972656-20-20c0-22.054688-17.945312-40-40-40s-40 17.945312-40 40c0 11.027344-8.972656 20-20 20s-20-8.972656-20-20v-22.21875c0-64.484375 40.546875-122.632812 98.597656-141.410156 5.257813-1.695313 8.136719-7.335938 6.4375-12.589844-1.695312-5.253906-7.335937-8.140625-12.589844-6.4375-66.207031 21.410156-112.445312 87.386719-112.445312 160.4375v18.222656c-18.199219 9.292969-30 28.15625-30 48.996094 0 16.394531 7.21875 31.125 18.632812 41.210938-11.1875 7.097656-18.632812 19.585937-18.632812 33.789062 0 19.136719 13.511719 35.167969 31.492188 39.078125 0 0 23.871093 130.703125 23.882812 130.757813 3.71875 18.636718 20.210938 32.164062 39.214844 32.164062h190.820312c19.003906 0 35.496094-13.527344 39.214844-32.164062.011719-.054688 23.882812-130.757813 23.882812-130.757813 17.980469-3.910156 31.492188-19.941406 31.492188-39.078125 0-14.203125-7.445312-26.691406-18.632812-33.789062 11.414062-10.085938 18.632812-24.816407 18.632812-41.210938zm-346.152344-27.898438c6.421875 13.523438 20.210938 22.898438 36.152344 22.898438 22.054688 0 40-17.945312 40-40 0-11.027344 8.972656-20 20-20s20 8.972656 20 20c0 22.054688 17.945312 40 40 40s40-17.945312 40-40c0-11.027344 8.972656-20 20-20s20 8.972656 20 20c0 22.054688 17.945312 40 40 40 15.941406 0 29.730469-9.375 36.152344-22.898438 8.554687 6.503907 13.847656 16.757813 13.847656 27.898438 0 19.300781-15.699219 35-35 35h-270c-19.300781 0-35-15.699219-35-35 0-11.140625 5.292969-21.394531 13.847656-27.898438zm41.152344 268.894532-23.007812-125.996094h53.890624l13.148438 142h-24.441406c-9.476563 0-17.699219-6.726562-19.589844-16.003906zm179.03125-125.996094-13.148438 142h-40.882812v-142zm-74.03125 142h-40.882812l-13.148438-142h54.03125zm125-16.003906c-1.890625 9.277344-10.113281 16.003906-19.589844 16.003906h-24.441406l13.148438-142h53.890624zm35-185.996094c11.027344 0 20 8.972656 20 20s-8.972656 20-20 20c-15.105469 0-300 0-300 0-11.027344 0-20-8.972656-20-20s8.972656-20 20-20zm0 0"/><path d="m200 10c0 5.523438-4.476562 10-10 10s-10-4.476562-10-10 4.476562-10 10-10 10 4.476562 10 10zm0 0"/></svg>