<svg height="512pt" viewBox="0 0 512 512" width="512pt" xmlns="http://www.w3.org/2000/svg"><path d="m256 166c49.703125 0 90 40.292969 90 90 0 23.863281-9.289062 45.558594-24.445312 61.667969 9.234374 34.464843 72.792968 50.738281 72.792968-44.6875 0-27.117188 7.296875-51.851563 28.972656-51.851563 39.5 0 23.488282 68.976563 76.335938 68.976563 1.542969-11.148438 2.34375-22.53125 2.34375-34.105469 0-135.863281-110.136719-246-246-246s-246 110.136719-246 246c20.023438 34.679688 82.324219 40.964844 100-25 13.691406-51.09375 56.164062-51.820312 71.421875-25.394531 16.179687-23.898438 43.542969-39.605469 74.578125-39.605469zm0 0" fill="#efc9b4" fill-rule="evenodd"/><path d="m394.347656 272.980469c0 95.425781-63.558594 79.152343-72.792968 44.6875-16.414063 17.441406-39.714844 28.332031-65.554688 28.332031-49.703125 0-90-40.292969-90-90 0-18.671875 5.6875-36.015625 15.421875-50.394531-15.257813-26.425781-57.730469-25.699219-71.421875 25.394531-17.671875 65.964844-79.976562 59.679688-100 25 0 135.863281 110.136719 246 246 246 124.289062 0 227.050781-92.175781 243.65625-211.894531-52.847656 0-36.839844-68.976563-76.335938-68.976563-21.675781 0-28.972656 24.734375-28.972656 51.851563zm0 0" fill="#f5828c" fill-rule="evenodd"/><path d="m509.613281 290.910156c1.578125-11.492187 2.386719-23.152344 2.386719-34.910156 0-68.378906-26.628906-132.667969-74.980469-181.019531-48.351562-48.351563-112.640625-74.980469-181.019531-74.980469s-132.667969 26.628906-181.019531 74.980469c-48.351563 48.351562-74.980469 112.640625-74.980469 181.019531 0 .078125.00390625.15625.00390625.234375v.054687c.07421875 68.269532 26.69140575 132.445313 74.97656275 180.730469 48.351562 48.351563 112.640625 74.980469 181.019531 74.980469 29.238281 0 57.9375-4.90625 85.308594-14.578125 5.207031-1.84375 7.933594-7.554687 6.09375-12.761719-1.839844-5.207031-7.554688-7.9375-12.761719-6.097656-25.21875 8.917969-51.679687 13.4375-78.640625 13.4375-121.417969 0-221.699219-92.171875-234.585938-210.21875 9.917969 6.285156 21.605469 9.796875 33.59375 9.796875 2.648438 0 5.3125-.171875 7.976563-.519531 27.191406-3.582032 47.851563-24.527344 56.675781-57.46875 5.402344-20.164063 16.570313-33.25 29.871094-35 7.515625-.988282 14.742188 1.804687 19.878906 7.433594-8.523437 14.710937-13.410156 31.785156-13.410156 49.976562 0 55.140625 44.859375 100 100 100 23.554688 0 45.226562-8.191406 62.332031-21.863281 8.503907 12.378906 22.765625 20.488281 37.300781 20.488281 1.667969 0 3.339844-.105469 5.003907-.324219 13.144531-1.730469 43.710937-13.117187 43.710937-81.320312 0-12.582031 1.847656-41.851563 18.96875-41.851563 10.671875 0 14.808594 7.144532 22.355469 24.6875 7.070313 16.4375 16.449219 38.210938 42.363281 43.222656-9.753906 52.660157-37.222656 100.839844-78.648437 136.304688-4.195313 3.59375-4.6875 9.90625-1.09375 14.101562 3.589843 4.195313 9.902343 4.683594 14.097656 1.09375 47.644531-40.785156 78.269531-97.082031 87.011719-158.234374.105468-.453126.171875-.917969.210937-1.394532zm-333.613281-34.910156c0-44.113281 35.886719-80 80-80s80 35.886719 80 80-35.886719 80-80 80-80-35.886719-80-80zm288.042969-8.085938c-7.050781-16.390624-15.824219-36.785156-40.726563-36.785156-11.714844 0-38.972656 6.027344-38.972656 61.851563 0 36.335937-9.835938 59.320312-26.316406 61.492187-9.601563 1.265625-20.257813-5.324218-25.023438-14.746094 14.355469-17.316406 22.996094-39.53125 22.996094-63.726562 0-55.140625-44.859375-100-100-100-29.703125 0-56.417969 13.023438-74.75 33.652344-9.285156-8.414063-21.722656-12.550782-34.332031-10.890625-21.597657 2.84375-39.007813 21.402343-46.574219 49.648437-6.726562 25.105469-20.921875 40.308594-39.972656 42.816406-15.5625 2.042969-31.761719-5.304687-40.335938-18.039062 1.515625-128.835938 106.773438-233.1875 235.964844-233.1875 130.132812 0 236 105.867188 236 236 0 7.789062-.402344 15.53125-1.160156 23.203125-13.945313-3.164063-19.566406-14.488281-26.796875-31.289063zm0 0"/><path d="m138 108c-5.523438 0-10 4.480469-10 10v.007812c0 5.523438 4.476562 9.996094 10 9.996094s10-4.480468 10-10.003906-4.480469-10-10-10zm0 0"/><path d="m244 108c-5.523438 0-10 4.480469-10 10v.007812c0 5.523438 4.476562 9.996094 10 9.996094s10-4.480468 10-10.003906-4.480469-10-10-10zm0 0"/><path d="m343.996094 89c-5.519532 0-10 4.480469-10 10v.007812c0 5.523438 4.480468 9.996094 10 9.996094 5.523437 0 10-4.480468 10-10.003906s-4.476563-10-10-10zm0 0"/><path d="m409 161c-5.523438 0-10 4.480469-10 10v.007812c0 5.523438 4.476562 9.996094 10 9.996094s10-4.480468 10-10.003906-4.476562-10-10-10zm0 0"/><path d="m438 342c0-5.519531-4.476562-10-10-10s-10 4.480469-10 10v.007812c0 5.523438 4.476562 9.996094 10 9.996094s10-4.480468 10-10.003906zm0 0"/><path d="m300 389v.007812c0 5.523438 4.476562 9.996094 10 9.996094s10-4.480468 10-10.003906-4.476562-10-10-10-10 4.480469-10 10zm0 0"/><path d="m212 441v.007812c0 5.523438 4.476562 9.996094 10 9.996094s10-4.480468 10-10.003906-4.476562-10-10-10-10 4.480469-10 10zm0 0"/><path d="m155 358v.007812c0 5.523438 4.476562 9.996094 10 9.996094s10-4.480468 10-10.003906-4.476562-10-10-10-10 4.480469-10 10zm0 0"/><path d="m75 323v.007812c0 5.523438 4.476562 9.996094 10 9.996094s10-4.480468 10-10.003906-4.476562-10-10-10-10 4.480469-10 10zm0 0"/><path d="m70.996094 166c-5.519532 0-10 4.480469-10 10v.007812c0 5.523438 4.480468 9.996094 10 9.996094 5.523437 0 10-4.480468 10-10.003906s-4.476563-10-10-10zm0 0"/><path d="m375.0625 459.851562-.007812.003907c-5.078126 2.175781-7.425782 8.050781-5.25 13.128906 1.625 3.789063 5.316406 6.0625 9.199218 6.0625 1.3125 0 2.652344-.261719 3.933594-.8125 5.078125-2.175781 7.429688-8.054687 5.253906-13.132813-2.175781-5.074218-8.054687-7.425781-13.128906-5.25zm0 0"/></svg>