<svg height="511pt" viewBox="0 -45 511.99923 511" width="511pt" xmlns="http://www.w3.org/2000/svg"><path d="m327.777344 11.75c-7.910156-5.972656-19.128906-4.601562-25.371094 3.097656l-248.316406 306.320313c-11.414063 14.078125-8.882813 34.816406 5.582031 45.734375 14.464844 10.917968 35.101563 7.671875 45.515625-7.164063l226.5625-322.742187c5.695312-8.113282 3.9375-19.277344-3.972656-25.246094zm0 0" fill="#ffc7a4"/><path d="m375.121094 60.261719c-5.773438-8.054688-16.894532-10.082031-25.140625-4.589844l-328.195313 218.613281c-15.082031 10.046875-18.832031 30.59375-8.269531 45.324219 10.5625 14.722656 31.230469 17.761719 45.585937 6.695313l312.304688-240.757813c7.847656-6.050781 9.492188-17.234375 3.714844-25.285156zm0 0" fill="#ffe4d3"/><path d="m500.179688 271.058594c.121093-17.097656-14.4375-31.089844-31.539063-31.089844h-208.265625c-17.101562 0-31.660156 13.988281-31.539062 31.089844.070312 9.96875 4.871093 18.808594 12.265624 24.398437 3.496094 2.644531 5.507813 6.898438 4.828126 11.226563-1.488282 9.417968 1.394531 19.386718 8.648437 26.644531 5.804687 5.804687 13.34375 8.8125 20.945313 9.023437 4.511718.128907 8.410156 3.015626 10.25 7.136719 4.808593 10.785157 15.625 18.300781 28.195312 18.300781 6.796875 0 13.074219-2.199218 18.171875-5.917968 4.261719-3.113282 9.9375-3.113282 14.199219 0 5.09375 3.71875 11.375 5.917968 18.167968 5.917968 6.796876 0 13.074219-2.199218 18.171876-5.917968 4.261718-3.113282 9.9375-3.113282 14.199218 0 5.09375 3.71875 11.375 5.917968 18.167969 5.917968 12.570313 0 23.386719-7.515624 28.199219-18.296874 1.878906-4.210938 5.90625-6.976563 10.511718-7.148438 8.496094-.316406 16.824219-4.121094 22.660157-11.195312 5.792969-7.023438 7.957031-15.839844 6.714843-24.183594-.664062-4.4375 1.203126-8.800782 4.78125-11.503906 7.394532-5.59375 12.191407-14.433594 12.265626-24.402344zm0 0" fill="#a4e7ff"/><path d="m387.042969 297.585938c44.210937-1.578126 76.75-26.808594 76.75-26.808594v-30.808594h-203.417969c-17.101562 0-31.660156 13.988281-31.539062 31.085938.070312 9.96875 4.871093 18.8125 12.265624 24.402343 3.496094 2.644531 5.507813 6.894531 4.828126 11.226563-1.488282 9.414062 1.394531 19.386718 8.648437 26.644531 5.804687 5.800781 13.34375 8.808594 20.945313 9.023437 4.511718.125 8.410156 3.015626 10.25 7.136719 4.8125 10.78125 15.625 18.300781 28.195312 18.300781 6.796875 0 13.074219-2.199218 18.171875-5.921874 4.261719-3.113282 9.9375-3.113282 14.199219 0 5.09375 3.722656 11.375 5.921874 18.167968 5.921874 3.210938 0 6.308594-.492187 9.21875-1.402343-6.460937-9.878907-10.976562-19.578125-14.105468-28.492188-6.765625-19.269531 7.011718-39.582031 27.421875-40.308593zm0 0" fill="#5ad6ff"/><path d="m410.429688 264.65625c-28.203126-18.5-63.945313-18.957031-91.839844 0-27.519532 18.699219-64.984375 11.550781-83.6875-15.964844s-11.554688-64.980468 15.960937-83.683594c33.65625-22.871093 72.953125-34.957031 113.644531-34.957031 40.691407 0 79.988282 12.085938 113.644532 34.957031 27.515625 18.703126 34.664062 56.167969 15.960937 83.683594-11.652343 17.148438-48.691406 38.917969-83.683593 15.964844zm0 0" fill="#ff938a"/><g fill="#ffc4bf"><path d="m275.699219 202.644531c2.707031 13.25 15.027343 15.53125 21.136719 14.363281 9.804687-1.871093 16.238281-11.332031 14.367187-21.136718-3.664063-19.203125-12.425781-36.378906-24.855469-50.132813-11.636718 4.886719-22.851562 10.882813-33.519531 17.953125 11.515625 9.742188 19.675781 23.335938 22.871094 38.953125zm0 0"/><path d="m346.367188 182.835938c-1.0625 13.484374 10.144531 19.082031 16.335937 19.652343 9.941406.914063 18.738281-6.398437 19.65625-16.339843 1.824219-19.824219-2-39.085938-10.457031-55.964844-2.460938-.085938-4.921875-.132813-7.394532-.132813-11.476562 0-22.839843.964844-33.996093 2.855469 11.484375 13.511719 17.320312 31.324219 15.855469 49.929688zm0 0"/><path d="m424.148438 187.140625c-4.089844 12.894531 5.558593 20.886719 11.460937 22.847656 9.472656 3.140625 19.703125-1.988281 22.84375-11.460937 4.679687-14.097656 6.214844-28.617188 4.867187-42.695313-13.257812-7.441406-27.230468-13.324219-41.6875-17.582031 6.710938 15.023438 7.765626 32.347656 2.515626 48.890625zm0 0"/></g><path d="m87.503906 248.917969v103.515625c0 34.089844 47.25 61.726562 105.535156 61.726562 58.285157 0 105.535157-27.636718 105.535157-61.726562v-103.515625zm0 0" fill="#8697a6"/><path d="m224.480469 248.917969h-136.976563v103.515625c0 25.363281 26.167969 47.160156 63.566406 56.652344-2.851562-15.714844-3.722656-31.09375-3.726562-44.234376-.007812-19.4375 14.042969-36.136718 33.207031-39.386718 27.246094-4.625 43.929688-17.605469 43.929688-17.605469zm0 0" fill="#6b7d8e"/><path d="m298.574219 248.917969c0-34.089844-47.25-61.722657-105.535157-61.722657-58.285156 0-105.535156 27.632813-105.535156 61.722657 0 34.089843 47.25 61.726562 105.535156 61.726562 58.285157 0 105.535157-27.636719 105.535157-61.726562zm0 0" fill="#a4e7ff"/><path d="m236.847656 248.917969c0-12.828125-19.613281-23.230469-43.808594-23.230469-24.191406 0-43.804687 10.402344-43.804687 23.230469 0 12.832031 19.613281 23.230469 43.804687 23.230469 24.195313 0 43.808594-10.398438 43.808594-23.230469zm0 0" fill="#ff8a98"/><path d="m240.449219 340.105469c-4.140625 0-7.5 3.359375-7.5 7.5v12.449219c0 4.144531 3.359375 7.5 7.5 7.5 4.144531 0 7.5-3.355469 7.5-7.5v-12.449219c0-4.140625-3.355469-7.5-7.5-7.5zm0 0"/><path d="m145.628906 340.105469c-4.140625 0-7.5 3.359375-7.5 7.5v12.449219c0 4.144531 3.359375 7.5 7.5 7.5 4.144532 0 7.5-3.355469 7.5-7.5v-12.449219c.003906-4.140625-3.355468-7.5-7.5-7.5zm0 0"/><path d="m208.550781 350.414062c-1.269531-.835937-6.882812-2.996093-10.386719 2.148438-1.683593 2.46875-4.128906 2.765625-5.125 2.765625-.992187 0-3.484374-.269531-5.121093-2.765625-2.277344-3.460938-6.925781-4.425781-10.386719-2.148438-3.464844 2.273438-4.425781 6.921876-2.152344 10.382813 3.921875 5.96875 10.523438 9.53125 17.660156 9.53125 7.140626 0 13.742188-3.5625 17.660157-9.53125 2.277343-3.460937 1.3125-8.109375-2.148438-10.382813zm0 0"/><path d="m158.550781 271.972656c3.65625 1.9375 8.199219.546875 10.140625-3.113281s.546875-8.199219-3.113281-10.140625c-5.539063-2.933594-8.84375-6.597656-8.84375-9.796875 0-3.203125 3.304687-6.863281 8.84375-9.800781 7.105469-3.769532 17.117187-5.929688 27.460937-5.929688 10.347657 0 20.355469 2.160156 27.464844 5.929688 5.535156 2.9375 8.84375 6.597656 8.84375 9.800781 0 3.199219-3.308594 6.863281-8.84375 9.796875-7.109375 3.769531-17.117187 5.933594-27.464844 5.933594-4.140624 0-7.5 3.355468-7.5 7.5 0 4.140625 3.359376 7.5 7.5 7.5 29.25 0 51.308594-13.214844 51.308594-30.730469 0-17.519531-22.058594-30.730469-51.308594-30.730469s-51.308593 13.210938-51.308593 30.730469c0 9.113281 5.972656 17.296875 16.820312 23.050781zm0 0"/><path d="m482.367188 158.808594c-34.902344-23.71875-75.65625-36.257813-117.859376-36.257813-10.78125 0-21.464843.824219-31.980468 2.4375l43.457031-33.503906c11.109375-8.5625 13.40625-24.199219 5.234375-35.59375-8.175781-11.398437-23.722656-14.234375-35.398438-6.460937l-25.609374 17.0625 17.679687-25.1875c8.058594-11.476563 5.601563-27.089844-5.59375-35.539063-11.191406-8.453125-26.882813-6.535156-35.714844 4.359375l-127.0625 156.742188-32.871093 21.894531c-21.507813 6.226562-40.503907 23.117187-46.3125 30.851562l-72.707032 48.429688c-9.003906 5.996093-15.03125 15.160156-16.972656 25.800781-1.941406 10.644531.460938 21.34375 6.765625 30.132812 6.304687 8.792969 16.359375 16.128907 32.007813 16.492188-.3125 12.53125 5.359374 24.574219 15.726562 32.417969 15.371094 11.632812 30.390625 7.574219 33.652344 6.734375 5.867187 8.566406 14.570312 16.351562 25.820312 22.933594 21.0625 12.320312 48.910156 19.105468 78.410156 19.105468s57.347657-6.785156 78.414063-19.105468c14.058594-8.222657 24.136719-18.328126 29.675781-29.492188 4.09375 1.453125 20.730469 7.117188 35.433594-5.136719 1.546875-1.289062 3.726562-1.1875 5.351562 0 6.597657 4.816407 14.410157 7.363281 22.59375 7.363281 8.183594 0 15.996094-2.546874 22.589844-7.363281 1.628906-1.1875 3.726563-1.183593 5.355469 0 6.59375 4.816407 14.40625 7.363281 22.59375 7.363281 15.125 0 28.878906-8.925781 35.046875-22.742187.714844-1.605469 2.226562-2.644531 3.941406-2.707031 10.941406-.410156 21.207032-5.480469 28.167969-13.917969 6.902344-8.367187 9.945313-19.324219 8.34375-30.0625-.25-1.683594.457031-3.335937 1.890625-4.417969 9.597656-7.257812 15.15625-18.3125 15.242188-30.328125.050781-7.25-2.027344-14.308593-5.933594-20.429687 19.15625-30.667969 10.78125-71.378906-19.378906-91.875zm-115.28125-21.234375c6.621093 14.929687 9.324218 31.386719 7.804687 47.886719-.535156 5.804687-5.691406 10.085937-11.496094 9.558593-.105469-.011719-10.351562-1.414062-9.550781-11.597656 1.261719-15.976563-2.308594-31.46875-10.109375-44.765625 6.867187-.730469 22.492187-1.09375 23.351563-1.082031zm-39.675782 3.523437c8.59375 11.695313 12.660156 26.136719 11.480469 41.148438-1.382813 17.515625 9.207031 27.816406 25.492187 27.816406 13.050782 0 24.226563-9.980469 25.445313-23.226562 1.523437-16.515626-.628906-33.007813-6.210937-48.347657 11.015624 1.074219 21.867187 3.082031 32.460937 5.988281 4.832031 12.753907 5.183594 26.960938.921875 40.398438-5.3125 16.746094 6.214844 29.203125 16.25 32.226562 18.109375 5.464844 28.769531-5.496093 32.324219-16.214843.824219-2.480469 1.566406-5.007813 2.210937-7.515625 1.027344-4.011719-1.390625-8.101563-5.402344-9.128906-4.015624-1.027344-8.101562 1.390624-9.128906 5.402343-.558594 2.175781-1.203125 4.367188-1.914062 6.519531-1.835938 5.53125-7.835938 8.539063-13.367188 6.703126-.097656-.03125-9.761718-3.722657-6.671875-13.457032 4.101563-12.933594 4.734375-26.472656 2.003907-39.324218 14.222656 5.378906 27.851562 12.441406 40.632812 21.125 24.050781 16.347656 30.320312 49.210937 13.972656 73.265624-9.847656 14.492188-42.511718 34.148438-73.367187 13.90625-30.933594-20.289062-70.25-20.261718-100.167969.070313-2.644531 1.796875-5.417969 3.332031-8.296875 4.609375v-14.140625c0-8.621094-2.46875-16.945313-7.191406-24.683594 13.488281-2.933593 22.285156-16.140625 19.683593-29.773437-3.054687-16.019532-9.535156-31.066406-18.914062-44.136719-.003906 0 19.683594-7.667969 27.753906-9.230469zm-43.164062 13.746094c9.859375 12.234375 16.605468 26.792969 19.589844 42.433594 1.089843 5.722656-2.679688 11.269531-8.402344 12.363281-.105469.019531-10.339844 1.507813-12.386719-8.5-2.773437-13.566406-9.121094-26.101563-18.167969-36.167969 6.285156-3.75 12.753906-7.128906 19.367188-10.128906zm-32.074219 18.5c6.148437 6.328125 10.894531 14.042969 13.875 22.511719-7.789063-4.003907-16.34375-7.320313-25.476563-9.875 3.132813-4.800781 7.039063-9.066407 11.601563-12.636719zm56.0625-153.773438c3.714844-4.582031 10.316406-5.390624 15.023437-1.835937 4.710938 3.554687 5.746094 10.121094 2.355469 14.949219l-39.828125 56.738281-74.289062 49.484375zm45.902344 42.34375c4.910156-3.269531 11.453125-2.078124 14.890625 2.71875 3.4375 4.792969 2.472656 11.371094-2.203125 14.972657l-70.402344 54.277343c-17.492187 6.007813-34.214844 14.351563-49.773437 24.921876-9.015626 6.128906-16.324219 14.222656-21.449219 23.675781-20.039063-3.492188-43.480469-2.527344-49.015625-2.03125zm-231.9375 149.832032c18.804687-10.996094 43.960937-17.050782 70.839843-17.050782 26.878907 0 52.035157 6.054688 70.839844 17.050782 17.539063 10.257812 27.195313 23.460937 27.195313 37.171875 0 13.714843-9.660157 26.917969-27.195313 37.175781-18.804687 10.996094-43.960937 17.050781-70.839844 17.050781-26.878906 0-52.035156-6.054687-70.839843-17.050781-17.535157-10.257812-27.195313-23.460938-27.195313-37.175781 0-13.710938 9.660156-26.914063 27.195313-37.171875zm-102.589844 103.488281c-10.433594-16.023437.75-30.988281 6.335937-34.707031l54.296876-36.171875c-.152344 1.511719-.238282 56.363281-.238282 56.363281l-25.484375 19.648438c-5.316406 4.097656-24.46875 10.890624-34.910156-5.132813zm35.148437 22.203125c3.144532-1.316406 25.246094-17.777344 25.246094-17.777344v32.773438c0 4.507812.679688 8.933594 2 13.238281-22.332031 1.230469-29.296875-13.582031-27.246094-28.234375zm209.121094 52.167969c-18.804687 10.996093-43.960937 17.054687-70.839844 17.054687-26.878906 0-52.035156-6.058594-70.839843-17.054687-17.535157-10.257813-27.195313-23.460938-27.195313-37.171875v-68.675782c5.253906 5.578126 11.824219 10.71875 19.625 15.28125 21.0625 12.320313 48.910156 19.105469 78.410156 19.105469s57.347657-6.785156 78.414063-19.105469c7.796875-4.558593 14.367187-9.699218 19.621094-15.28125v68.675782c0 13.710937-9.65625 26.914062-27.195313 37.171875zm219.511719-100.128907c-5.546875 4.6875-8.734375 11.5-7.679687 18.59375.972656 6.539063-.878907 13.210938-5.078126 18.304688-4.238281 5.136719-10.492187 8.226562-17.15625 8.472656-7.472656.28125-14.015624 4.71875-17.082031 11.585938-3.753906 8.417968-12.136719 13.855468-21.347656 13.855468-4.984375 0-9.738281-1.546874-13.746094-4.476562-6.890625-5.03125-16.152343-5.03125-23.046875 0-4.011718 2.929688-8.765625 4.476562-13.746094 4.476562-4.984374 0-9.738281-1.546874-13.746093-4.476562-6.894531-5.03125-15.988281-4.800781-23.046875 0-9.625 6.546875-19.449219 3.953125-22.09375 2.941406.296875-2.085937.453125-79.621094.453125-79.621094 5.90625-1.960937 11.511719-4.730468 16.730469-8.273437 24.882812-16.914063 57.664062-16.886719 83.507812.066406 12.800781 8.398438 25.316406 11.175781 36.273438 11.175781 28.742187 0 41.773437-12.882812 48.65625-19.054687.957031 2.542969 6.167968 14.578125-7.851563 26.429687zm0 0"/></svg>