<?xml version="1.0" encoding="iso-8859-1"?>
<!-- Generator: Adobe Illustrator 19.0.0, SVG Export Plug-In . SVG Version: 6.00 Build 0)  -->
<svg version="1.1" id="Capa_1" xmlns="http://www.w3.org/2000/svg" xmlns:xlink="http://www.w3.org/1999/xlink" x="0px" y="0px"
	 viewBox="0 0 512 512" style="enable-background:new 0 0 512 512;" xml:space="preserve">
<circle style="fill:#F7F0E6;" cx="255.96" cy="256.04" r="248.46"/>
<circle style="fill:#FFAF5D;" cx="255.96" cy="256.04" r="205.62"/>
<circle style="fill:#FFBE64;" cx="255.96" cy="256.04" r="179.92"/>
<path style="fill:#EEE2D4;" d="M147.679,208.926c0.478,2.009,1.186,5.062,4.032,8.19c11.411-30.537,35.778-54.662,66.473-65.745
	c-2.384-1.851-5.338-2.925-9.339-3.611c-2.052-0.352-4.034-0.838-6.02-1.074c-22.298-2.65-43.407-11.418-59.285-27.296L36.75,12.601
	c-7.352-7.362-19.754-6.627-26.098,2.204c-4.983,6.936-3.498,16.659,2.541,22.698L119.31,143.62
	c15.877,15.878,24.646,36.988,27.296,59.285C146.842,204.892,147.197,206.9,147.679,208.926z"/>
<g>
	<path style="fill:#C9E66E;" d="M157.072,277c-3.026-2.749-7.945-0.341-7.538,3.727c2.296,22.957,12.641,45.099,30.975,61.757
		c18.303,16.629,41.284,24.81,64.315,24.929c4.133,0.021,6.141-5.106,3.082-7.885L157.072,277z"/>
	<path style="fill:#C9E66E;" d="M314.387,373.759c0.383,4.07,5.64,5.606,8.081,2.326c13.776-18.507,21.057-41.837,18.739-66.501
		s-13.818-46.228-30.801-61.845c-3.009-2.767-7.888-0.279-7.506,3.791L314.387,373.759z"/>
	<path style="fill:#C9E66E;" d="M339.848,178.324c3.878-1.295,4.183-6.763,0.435-8.398c-21.147-9.225-45.519-11.031-69.017-3.186
		s-41.896,23.931-53.259,44.01c-2.014,3.558,1.515,7.746,5.393,6.452L339.848,178.324z"/>
</g>
<g>
	<circle style="fill:#FBE6A5;" cx="255.96" cy="230.34" r="17.14"/>
	<circle style="fill:#FBE6A5;" cx="380.19" cy="265.68" r="17.14"/>
	<circle style="fill:#FBE6A5;" cx="281.66" cy="118.96" r="17.14"/>
	<circle style="fill:#FBE6A5;" cx="187.42" cy="375.98" r="17.14"/>
</g>
<g>
	<path style="fill:#FF965A;" d="M277.304,328.789l-15.52-15.52c-2.406-2.406-2.406-6.306,0-8.712l15.52-15.52
		c2.406-2.406,6.306-2.406,8.712,0l15.52,15.52c2.406,2.406,2.406,6.306,0,8.712l-15.52,15.52
		C283.61,331.195,279.709,331.195,277.304,328.789z"/>
	<path style="fill:#FF965A;" d="M346.726,222.863l-20.858-6.834c-3.233-1.059-4.996-4.539-3.936-7.772l6.834-20.858
		c1.059-3.233,4.539-4.996,7.772-3.936l20.858,6.834c3.233,1.059,4.996,4.539,3.936,7.772l-6.834,20.858
		C353.439,222.16,349.96,223.923,346.726,222.863z"/>
	<path style="fill:#FF965A;" d="M128.455,314.093l-20.858-6.834c-3.233-1.059-4.996-4.539-3.936-7.772l6.834-20.858
		c1.059-3.233,4.539-4.996,7.772-3.936l20.858,6.834c3.233,1.059,4.996,4.539,3.936,7.772l-6.834,20.858
		C135.168,313.39,131.688,315.152,128.455,314.093z"/>
</g>
<path style="fill:#FBE6A5;" d="M352.342,143.95c-1.004,0-2.016-0.176-3.004-0.548l-5.714-2.142
	c-4.434-1.661-6.677-6.601-5.02-11.031c1.665-4.439,6.626-6.677,11.027-5.016l5.714,2.142c4.434,1.661,6.677,6.601,5.02,11.031
	C359.077,141.825,355.805,143.95,352.342,143.95z"/>
<path d="M436.992,75.046C388.648,26.701,324.37,0.076,256,0.076c-59.432,0-117.011,20.702-162.734,58.391L42.019,7.22
	c-5.117-5.123-12.196-7.725-19.421-7.139C15.378,0.666,8.79,4.409,4.522,10.349c-6.923,9.637-5.492,23.557,3.33,32.378
	l50.577,50.577c-37.697,45.732-58.39,103.268-58.39,162.734c0,68.37,26.625,132.647,74.97,180.992
	C123.353,485.375,187.63,512,256,512s132.647-26.625,180.992-74.97s74.97-112.622,74.97-180.992S485.338,123.391,436.992,75.046z
	 M16.705,19.1c1.718-2.391,4.241-3.836,7.105-4.068c2.821-0.229,5.597,0.787,7.599,2.792l99.892,99.892
	c17.916,17.917,41.49,29.379,68.59,33.501c-20.669,11.073-37.654,28.044-48.717,48.684c-4.126-27.088-15.587-50.651-33.497-68.561
	L18.458,32.12C14.834,28.495,14.064,22.777,16.705,19.1z M426.386,426.424C380.874,471.936,320.363,497,256,497
	s-124.874-25.064-170.386-70.576S15.038,320.402,15.038,256.038c0-55.498,19.152-109.203,54.055-152.07l19.742,19.743
	c-29.857,37.638-46.163,84.611-46.014,132.915c0.155,50.178,18.053,98.833,50.398,137.001c1.483,1.75,3.597,2.651,5.726,2.651
	c1.713,0,3.436-0.584,4.845-1.778c3.16-2.678,3.551-7.411,0.873-10.571c-30.062-35.475-46.698-80.701-46.842-127.349
	c-0.136-44.325,14.631-87.437,41.699-122.185l7.55,7.55c17.438,17.437,27.919,41.194,30.312,68.703
	c0.186,2.141,0.476,4.312,0.861,6.452c0.587,3.263,1.438,6.514,2.524,9.667c-0.445,1.76-0.866,3.529-1.232,5.32
	c-0.831,4.058,1.786,8.021,5.844,8.851c0.507,0.104,1.013,0.154,1.511,0.154c3.488,0,6.613-2.447,7.34-5.998
	c8.172-39.936,39.158-71.503,78.94-80.421c4.042-0.906,6.584-4.917,5.678-8.959s-4.919-6.584-8.959-5.678
	c-1.066,0.239-2.122,0.506-3.177,0.773c-3.154-1.084-6.387-1.941-9.649-2.528c-2.139-0.385-4.31-0.675-6.453-0.861
	c-27.509-2.394-51.266-12.875-68.703-30.313l-7.539-7.539c34.77-27.055,77.905-41.821,122.243-41.624
	c46.59,0.18,91.762,16.815,127.194,46.841c1.409,1.194,3.132,1.778,4.845,1.778c2.128,0,4.242-0.9,5.726-2.651
	c2.678-3.16,2.287-7.893-0.873-10.57C355.381,61.038,306.786,43.14,256.67,42.946c-0.275-0.001-0.548-0.001-0.823-0.001
	c-48.024,0-94.715,16.264-132.165,45.938l-19.755-19.755C146.785,34.231,200.535,15.076,256,15.076
	c64.363,0,124.874,25.064,170.386,70.576s70.576,106.022,70.576,170.386S471.898,380.912,426.386,426.424z"/>
<path d="M418.609,118.449c-2.677-3.159-7.41-3.551-10.57-0.873s-3.551,7.411-0.873,10.571
	c32.027,37.793,48.61,85.966,46.694,135.645c-1.926,49.961-22.472,96.96-57.851,132.34s-82.378,55.925-132.339,57.851
	c-49.683,1.917-97.853-14.667-135.646-46.695c-3.159-2.678-7.892-2.287-10.57,0.873s-2.287,7.893,0.873,10.57
	c38.55,32.669,87.124,50.401,137.601,50.401c2.766,0,5.544-0.053,8.32-0.161c53.749-2.072,104.309-24.174,142.368-62.233
	c38.06-38.059,60.161-88.62,62.234-142.368C470.91,210.935,453.068,159.112,418.609,118.449z"/>
<path d="M213.077,228.134c0.794,0,1.595-0.126,2.374-0.386l17.291-5.773c-0.945,2.612-1.463,5.426-1.463,8.36
	c0,13.584,11.052,24.636,24.636,24.636c13.584,0,24.635-11.052,24.635-24.636c0-8.607-4.441-16.193-11.148-20.6l49.529-16.536
	l-6.086,18.576c-0.619,1.891-0.462,3.949,0.437,5.724c0.899,1.774,2.466,3.12,4.356,3.739l32.567,10.67
	c0.775,0.254,1.562,0.375,2.336,0.375c3.154,0,6.09-2.006,7.126-5.167l10.67-32.567c0.619-1.89,0.462-3.949-0.437-5.724
	c-0.899-1.774-2.466-3.12-4.356-3.739l-11.585-3.795c1.99-1.204,3.351-3.273,3.59-5.65c0.295-2.938-1.16-5.775-3.718-7.249
	c-25.936-14.944-56.911-18.14-84.983-8.768c-28.072,9.373-50.914,30.536-62.67,58.064c-1.16,2.715-0.618,5.857,1.383,8.028
	C209.006,227.284,211.017,228.134,213.077,228.134z M255.915,239.971c-5.313,0-9.636-4.322-9.636-9.636
	c0-5.312,4.323-9.635,9.636-9.635c5.313,0,9.635,4.323,9.635,9.635C265.55,235.649,261.228,239.971,255.915,239.971z
	 M347.748,215.319l-18.313-6l6-18.312l18.313,6L347.748,215.319z M273.599,173.853c9.053-3.022,18.458-4.515,27.859-4.515
	c9.482,0,18.957,1.519,28.048,4.517l-100.599,33.587C239.794,191.792,255.416,179.923,273.599,173.853z"/>
<path d="M355.51,265.677c0,13.584,11.052,24.635,24.636,24.635s24.635-11.051,24.635-24.635c0-13.584-11.051-24.636-24.635-24.636
	S355.51,252.093,355.51,265.677z M380.146,256.041c5.313,0,9.635,4.323,9.635,9.636s-4.322,9.635-9.635,9.635
	s-9.636-4.322-9.636-9.635S374.833,256.041,380.146,256.041z"/>
<path d="M281.617,143.591c13.584,0,24.635-11.051,24.635-24.635s-11.051-24.635-24.635-24.635s-24.635,11.051-24.635,24.635
	S268.033,143.591,281.617,143.591z M281.617,109.321c5.313,0,9.635,4.322,9.635,9.635s-4.322,9.635-9.635,9.635
	s-9.635-4.322-9.635-9.635S276.304,109.321,281.617,109.321z"/>
<path d="M302.07,323.301l5.823,61.954c0.276,2.939,2.251,5.443,5.046,6.396c0.793,0.271,1.61,0.402,2.42,0.402
	c2.043,0,4.039-0.836,5.482-2.381c20.431-21.876,30.56-51.322,27.792-80.788c-2.77-29.465-18.208-56.507-42.357-74.194
	c-2.381-1.745-5.565-1.93-8.133-0.472c-2.568,1.457-4.042,4.285-3.766,7.225l4.709,50.1l-12.165-12.165
	c-1.406-1.407-3.314-2.197-5.303-2.197s-3.897,0.791-5.303,2.197l-24.233,24.233c-2.929,2.929-2.929,7.677,0,10.606l24.233,24.233
	c1.464,1.465,3.384,2.197,5.303,2.197s3.839-0.732,5.303-2.197L302.07,323.301z M333.698,310.288
	c1.793,19.085-2.75,38.171-12.667,54.453l-9.924-105.593C323.884,273.298,331.905,291.203,333.698,310.288z M267.991,308.914
	l13.626-13.626l13.626,13.626l-13.626,13.626L267.991,308.914z"/>
<path d="M134.264,323.512c1.167,0,2.328-0.272,3.389-0.809c1.774-0.899,3.119-2.465,3.739-4.356l5.08-15.506
	c5.495,17.231,15.392,32.878,28.95,45.197c1.648,1.498,3.354,2.914,5.086,4.293c-10.253,2.98-17.771,12.454-17.771,23.655
	c0,13.584,11.051,24.635,24.635,24.635s24.635-11.051,24.635-24.635c0-2.387-0.348-4.692-0.984-6.876
	c10.965,3.802,22.576,5.803,34.369,5.803c3.762,0,7.543-0.202,11.325-0.609c2.936-0.317,5.412-2.326,6.327-5.133
	c0.915-2.808,0.098-5.89-2.087-7.875l-106.909-97.134c-2.186-1.985-5.331-2.504-8.039-1.325c-2.707,1.179-4.47,3.836-4.504,6.788
	c-0.019,1.613,0.006,3.221,0.061,4.825l-26.866-8.802c-1.89-0.62-3.949-0.463-5.724,0.436s-3.119,2.465-3.739,4.356l-10.669,32.567
	c-1.29,3.937,0.856,8.173,4.792,9.462l32.567,10.67C132.69,323.388,133.478,323.512,134.264,323.512z M187.373,385.621
	c-5.313,0-9.635-4.323-9.635-9.635c0-5.313,4.322-9.636,9.635-9.636s9.635,4.322,9.635,9.636
	C197.008,381.298,192.686,385.621,187.373,385.621z M236.665,359.49c-18.975-1.842-36.969-9.664-51.156-22.554
	c-14.188-12.891-23.694-30.054-27.341-48.766L236.665,359.49z M111.159,300.55l6-18.313l18.312,6l-6,18.313L111.159,300.55z"/>
<path d="M274.379,387.655l-9.996,4.284c-3.807,1.632-5.571,6.041-3.939,9.848c1.219,2.844,3.987,4.547,6.897,4.547
	c0.986,0,1.988-0.195,2.951-0.608l9.996-4.284c3.807-1.631,5.571-6.041,3.939-9.848
	C282.596,387.786,278.186,386.024,274.379,387.655z"/>
<path d="M208.324,276.128c1.219,2.844,3.987,4.547,6.897,4.547c0.986,0,1.988-0.196,2.951-0.608
	c3.808-1.631,5.571-6.041,3.939-9.848l-4.284-9.995c-1.631-3.808-6.043-5.571-9.848-3.939c-3.808,1.632-5.571,6.041-3.939,9.848
	L208.324,276.128z"/>
<path d="M398.351,220.345c0.786,0,1.586-0.125,2.373-0.387l8.568-2.856c3.93-1.31,6.053-5.557,4.744-9.487
	c-1.311-3.93-5.557-6.054-9.487-4.744l-8.568,2.856c-3.93,1.31-6.053,5.558-4.744,9.487
	C392.284,218.358,395.21,220.345,398.351,220.345z"/>
<path d="M381.72,324.491c-3.598-2.052-8.178-0.8-10.23,2.798s-0.8,8.178,2.798,10.231l11.429,6.521
	c1.172,0.669,2.449,0.987,3.709,0.987c2.605,0,5.138-1.36,6.521-3.785c2.053-3.598,0.8-8.179-2.798-10.231L381.72,324.491z"/>
<path d="M343.161,404.999c1.772,0,3.551-0.625,4.98-1.895l4.819-4.284c3.096-2.752,3.375-7.493,0.623-10.588
	s-7.492-3.375-10.588-0.623l-4.819,4.284c-3.096,2.752-3.375,7.493-0.623,10.588C339.034,404.149,341.092,404.999,343.161,404.999z"
	/>
<path d="M173.29,234.669c1.402,1.168,3.104,1.738,4.797,1.738c2.149,0,4.282-0.919,5.766-2.699l3.57-4.284
	c2.652-3.183,2.222-7.912-0.96-10.563s-7.912-2.221-10.563,0.961l-3.57,4.284C169.678,227.288,170.108,232.018,173.29,234.669z"/>
<path d="M210.526,99.373c-2.929-2.929-7.678-2.929-10.606,0c-2.929,2.929-2.929,7.678,0,10.606l3.57,3.57
	c1.464,1.464,3.384,2.197,5.303,2.197s3.839-0.732,5.303-2.197c2.929-2.929,2.929-7.677,0-10.606L210.526,99.373z"/>
<path d="M107.415,234.267c1.213,0,2.444-0.295,3.584-0.917l7.854-4.284c3.636-1.983,4.977-6.539,2.993-10.175
	s-6.539-4.978-10.176-2.993l-7.854,4.283c-3.636,1.983-4.977,6.539-2.993,10.176C102.186,232.853,104.758,234.267,107.415,234.267z"
	/>
<path d="M343.956,140.258l5.711,2.142c0.867,0.325,1.757,0.479,2.632,0.479c3.037,0,5.895-1.857,7.023-4.868
	c1.455-3.879-0.511-8.202-4.389-9.656l-5.711-2.142c-3.876-1.455-8.202,0.51-9.656,4.389
	C338.112,134.48,340.077,138.803,343.956,140.258z"/>
<path d="M225.279,395.572l-3.57,5.712c-2.195,3.513-1.127,8.14,2.385,10.335c1.236,0.772,2.61,1.141,3.968,1.141
	c2.5,0,4.945-1.25,6.367-3.526l3.57-5.712c2.195-3.512,1.127-8.14-2.385-10.335C232.101,390.991,227.474,392.059,225.279,395.572z"
	/>
<g>
</g>
<g>
</g>
<g>
</g>
<g>
</g>
<g>
</g>
<g>
</g>
<g>
</g>
<g>
</g>
<g>
</g>
<g>
</g>
<g>
</g>
<g>
</g>
<g>
</g>
<g>
</g>
<g>
</g>
</svg>
