<svg height="496pt" viewBox="0 0 496 496" width="496pt" xmlns="http://www.w3.org/2000/svg"><path d="m448 440-16 48h-368l-16-48v-16h400zm0 0" fill="#cf9e76"/><path d="m104 136h22.433594l63.949218-.441406c13.707032-1.511719 34.761719-6.878906 45.617188-15.558594 12.945312-10.359375 29.03125-16 45.617188-16h190.382812c8.839844 0 16-7.160156 16-16s-7.160156-16-16-16h-190.382812c-16.578126 0-32.664063-5.640625-45.617188-16-11.144531-8.910156-32.617188-14.335938-46.726562-15.671875l-63.90625-.328125h-21.367188zm0 0" fill="#ccd1d9"/><path d="m440 440h-384c-26.511719 0-48-21.488281-48-48h480c0 26.511719-21.488281 48-48 48zm0 0" fill="#dfb28b"/><path d="m187.039062 256c0-24.816406 9.921876-24.816406 9.921876-49.632812 0-24.816407-9.921876-24.816407-9.921876-49.632813 0-24.796875 9.921876-24.796875 9.921876-49.597656 0-24.777344-9.921876-24.777344-9.921876-49.550781 0-24.792969 9.921876-24.792969 9.921876-49.585938h-64c0 24.792969-9.921876 24.792969-9.921876 49.585938 0 24.773437 9.921876 24.773437 9.921876 49.550781 0 24.800781-9.921876 24.800781-9.921876 49.597656 0 24.816406 9.921876 24.816406 9.921876 49.632813 0 24.816406-9.921876 24.816406-9.921876 49.632812l-.039062 19.503906 65.496094-.496094zm0 0" fill="#fcd770"/><path d="m200 392c0-75.113281 60.886719-136 136-136s136 60.886719 136 136zm0 0" fill="#ffeaa7"/><path d="m201.023438 376c-.617188 5.257812-1.023438 10.574219-1.023438 16h272c0-5.425781-.40625-10.742188-1.023438-16zm0 0" fill="#fcd770"/><path d="m232 392c0-57.441406 46.558594-104 104-104s104 46.558594 104 104zm0 0" fill="#fcd770"/><path d="m233.351562 376c-.808593 5.230469-1.351562 10.542969-1.351562 16h208c0-5.457031-.542969-10.769531-1.351562-16zm0 0" fill="#ffc729"/><path d="m264 392c0-39.769531 32.230469-72 72-72s72 32.230469 72 72zm0 0" fill="#ffeaa7"/><path d="m265.847656 376c-1.175781 5.152344-1.847656 10.496094-1.847656 16h144c0-5.503906-.671875-10.847656-1.847656-16zm0 0" fill="#fcd770"/><path d="m296 392c0-22.089844 17.910156-40 40-40s40 17.910156 40 40zm0 0" fill="#fcd770"/><path d="m299.375 376c-2.144531 4.902344-3.375 10.304688-3.375 16h80c0-5.695312-1.230469-11.097656-3.375-16zm0 0" fill="#ffc729"/><path d="m260.910156 278.648438c-36.695312 24.351562-60.910156 66.007812-60.910156 113.351562h112c0-45.0625-19.824219-85.496094-51.089844-113.351562zm0 0" fill="#fcd770"/><path d="m232 392h80c0-33.359375-10.929688-64.136719-29.214844-89.230469-30.378906 18.160157-50.785156 51.269531-50.785156 89.230469zm0 0" fill="#ffc729"/><path d="m264 392h48c0-21.929688-4.761719-42.734375-13.160156-61.585938-20.855469 12.609376-34.839844 35.433594-34.839844 61.585938zm0 0" fill="#fcd770"/><path d="m296 392h16c0-10.054688-1.113281-19.832031-3.007812-29.335938-7.9375 7.304688-12.992188 17.695313-12.992188 29.335938zm0 0" fill="#ffc729"/><path d="m24 392c0-75.113281 60.886719-136 136-136s136 60.886719 136 136zm0 0" fill="#ffeaa7"/><path d="m25.023438 376c-.617188 5.257812-1.023438 10.574219-1.023438 16h272c0-5.425781-.40625-10.742188-1.023438-16zm0 0" fill="#fcd770"/><path d="m56 392c0-57.441406 46.558594-104 104-104s104 46.558594 104 104zm0 0" fill="#fcd770"/><path d="m57.351562 376c-.808593 5.230469-1.351562 10.542969-1.351562 16h208c0-5.457031-.542969-10.769531-1.351562-16zm0 0" fill="#ffc729"/><path d="m88 392c0-39.769531 32.230469-72 72-72s72 32.230469 72 72zm0 0" fill="#ffeaa7"/><path d="m89.847656 376c-1.175781 5.152344-1.847656 10.496094-1.847656 16h144c0-5.503906-.671875-10.847656-1.847656-16zm0 0" fill="#fcd770"/><path d="m120 392c0-22.089844 17.910156-40 40-40s40 17.910156 40 40zm0 0" fill="#fcd770"/><path d="m488 248h-16c-35.34375 0-64 28.65625-64 64h16c35.34375 0 64-28.65625 64-64zm0 0" fill="#a0d468"/><path d="m72 288h-16c-26.511719 0-48-21.488281-48-48h16c26.511719 0 48 21.488281 48 48zm0 0" fill="#a0d468"/><g fill="#fc6e51"><path d="m384 240c0 8.835938-7.164062 16-16 16s-16-7.164062-16-16 7.164062-16 16-16 16 7.164062 16 16zm0 0"/><path d="m96 256c0 8.835938-7.164062 16-16 16s-16-7.164062-16-16 7.164062-16 16-16 16 7.164062 16 16zm0 0"/><path d="m224 336c0 8.835938-7.164062 16-16 16s-16-7.164062-16-16 7.164062-16 16-16 16 7.164062 16 16zm0 0"/><path d="m488 376c0 8.835938-7.164062 16-16 16s-16-7.164062-16-16 7.164062-16 16-16 16 7.164062 16 16zm0 0"/></g><path d="m123.375 376c-2.144531 4.902344-3.375 10.304688-3.375 16h80c0-5.695312-1.230469-11.097656-3.375-16zm0 0" fill="#ffc729"/><path d="m413.230469 270.535156c-8.886719-5.671875-18.277344-10.269531-28.0625-13.832031 4.214843-4.320313 6.832031-10.207031 6.832031-16.703125 0-13.230469-10.769531-24-24-24s-24 10.769531-24 24c0 2.953125.609375 5.753906 1.59375 8.367188-3.1875-.207032-6.378906-.367188-9.59375-.367188-31.9375 0-62.921875 10.769531-88.054688 30.230469-15.433593-11.957031-33.328124-20.804688-52.816406-25.71875.390625-8.535157 2.214844-13.136719 4.304688-18.359375 2.589844-6.488282 5.527344-13.832032 5.527344-27.792969 0-13.945313-2.9375-21.296875-5.527344-27.785156-2.363282-5.886719-4.394532-10.972657-4.394532-21.847657 0-6.09375.65625-10.34375 1.632813-13.964843 12.929687-2.066407 32.617187-7.160157 44.328125-16.523438 11.480469-9.175781 25.894531-14.238281 40.609375-14.238281h190.390625c13.230469 0 24-10.769531 24-24s-10.769531-24-24-24h-190.390625c-14.714844 0-29.136719-5.0625-40.617187-14.246094-10.839844-8.675781-27.886719-13.585937-40.792969-15.929687 2.367187-6.046875 4.761719-13.25 4.761719-25.824219v-8h-80v8c0 10.847656-2.03125 15.929688-4.394532 21.816406-.277344.710938-.574218 1.441406-.863281 2.183594h-15.703125v16h11.574219c-.335938 2.824219-.535157 5.976562-.535157 9.574219 0 2.335937.105469 4.433593.257813 6.425781h-11.296875v16h14.535156c.664063 1.902344 1.359375 3.648438 2.03125 5.335938 1.363282 3.390624 2.601563 6.542968 3.417969 10.664062h-19.984375v16h20.785156c-.488281 7.136719-2.023437 11.457031-3.832031 16h-16.953125v16h12.039062c-.605468 3.574219-1 7.71875-1 12.734375 0 13.953125 2.9375 21.304687 5.527344 27.792969 2.363282 5.886718 4.394532 10.976562 4.394532 21.839844 0 10.871093-2.03125 15.960937-4.394532 21.847656-2.542968 6.371094-5.40625 13.609375-5.511718 27.066406-3.871094 1.269531-7.695313 2.640625-11.414063 4.222656.175781-1.152344.359375-2.304687.359375-3.503906 0-13.230469-10.769531-24-24-24-9.015625 0-16.800781 5.054688-20.894531 12.433594-9.617188-7.761719-21.816407-12.433594-35.105469-12.433594h-24v8c0 29.894531 23.585938 54.335938 53.113281 55.855469-21.304687 23.65625-34.832031 54.335937-36.707031 88.144531h-16.40625v8c0 25.886719 17.6875 47.664062 41.585938 54.046875l16.644531 49.953125h379.53125l16.644531-49.953125c23.90625-6.382813 41.59375-28.160156 41.59375-54.046875v-8h-1.472656c.898437-2.511719 1.472656-5.183594 1.472656-8 0-12.464844-9.59375-22.625-21.761719-23.777344-4.0625-14.175781-10.199219-27.488281-18.375-39.757812 23.746094-11.777344 40.136719-36.207032 40.136719-64.464844v-8h-24c-24.265625 0-45.710938 12.097656-58.769531 30.535156zm-45.230469-38.535156c4.414062 0 8 3.585938 8 8s-3.585938 8-8 8-8-3.585938-8-8 3.585938-8 8-8zm15.28125 152c-3.824219-22.664062-23.539062-40-47.28125-40-14.183594 0-26.902344 6.214844-35.703125 16.023438-1.34375-5.894532-3.097656-11.632813-5.144531-17.230469 11.472656-9.535157 25.792968-14.792969 40.847656-14.792969 32.574219 0 59.488281 24.480469 63.449219 56zm-16.417969 0h-61.726562c3.574219-13.769531 15.992187-24 30.863281-24s27.289062 10.230469 30.863281 24zm48.730469 0c-4.035156-40.367188-38.1875-72-79.59375-72-17.246094 0-33.703125 5.535156-47.375 15.625-2.425781-4.824219-5.058594-9.511719-7.992188-14.007812 16.121094-11.386719 35.503907-17.617188 55.367188-17.617188 50.238281 0 91.503906 38.800781 95.59375 88zm-79.59375-120c24.921875 0 48.769531 7.144531 69.457031 20.566406-2.136719 5.167969-3.632812 10.664063-4.511719 16.355469-18.34375-13.113281-40.730468-20.921875-64.945312-20.921875-23.230469 0-45.910156 7.328125-64.761719 20.679688-3.40625-4.144532-7.09375-8.046876-10.933593-11.792969 21.863281-16.054688 48.390624-24.886719 75.695312-24.886719zm-54.390625-184h190.390625c4.414062 0 8 3.585938 8 8s-3.585938 8-8 8h-190.390625c-18.328125 0-36.304687 6.304688-50.609375 17.753906-6.222656 4.980469-17.335938 9.023438-28.230469 11.535156.984375-3.640624 1.765625-7.890624 2.0625-13.28125h11.167969v-16h-11.808594c-.992187-6.863281-2.800781-11.679687-4.519531-16h16.328125v-16.007812h-20.664062c-.183594-1.910156-.296876-4.007812-.296876-6.425781 0-3.246094.199219-5.933594.519532-8.316407 12.769531 2.132813 27.769531 6.847657 35.449218 12.988282 14.296876 11.449218 32.273438 17.753906 50.601563 17.753906zm-97.042969 5.335938c2.363282 5.871093 4.394532 10.953124 4.394532 21.808593s-2.03125 15.933594-4.394532 21.832031c-2.589844 6.480469-5.527344 13.832032-5.527344 27.765626 0 13.953124 2.9375 21.304687 5.527344 27.792968 2.363282 5.890625 4.394532 10.976563 4.394532 21.839844 0 10.871094-2.03125 15.960938-4.394532 21.847656-2.152344 5.378906-4.511718 11.410156-5.261718 21.234375-5.199219-.703125-10.464844-1.144531-15.824219-1.273437.71875-5.894532 2.238281-9.769532 3.945312-14.023438 2.589844-6.488281 5.527344-13.832031 5.527344-27.792968 0-13.941407-2.9375-21.296876-5.527344-27.78125-2.363281-5.890626-4.394531-10.976563-4.394531-21.851563 0-10.855469 2.03125-15.933594 4.394531-21.832031 2.589844-6.476563 5.527344-13.832032 5.527344-27.765625 0-13.929688-2.9375-21.273438-5.527344-27.761719-2.363281-5.871094-4.394531-10.949219-4.394531-21.808594 0-10.855468 2.03125-15.925781 4.394531-21.8125 2.039063-5.105468 4.269531-10.800781 5.140625-19.769531h15.9375c-.726562 5.808594-2.246094 9.601563-3.9375 13.816406-2.589844 6.488281-5.527344 13.832031-5.527344 27.765625 0 13.9375 2.9375 21.28125 5.527344 27.769532zm-49.132812 93.25c-2.363282-5.890626-4.394532-10.976563-4.394532-21.851563 0-10.855469 2.03125-15.933594 4.394532-21.832031 2.589844-6.476563 5.527344-13.832032 5.527344-27.765625 0-13.929688-2.9375-21.273438-5.527344-27.761719-2.363282-5.871094-4.394532-10.949219-4.394532-21.808594 0-10.855468 2.03125-15.925781 4.394532-21.8125 2.046875-5.121094 4.300781-10.769531 5.167968-19.769531h15.886719c-.726562 5.785156-2.230469 9.609375-3.921875 13.816406-2.589844 6.488281-5.527344 13.832031-5.527344 27.765625 0 13.929688 2.9375 21.273438 5.527344 27.761719 2.363282 5.871094 4.394532 10.953125 4.394532 21.808594s-2.03125 15.933593-4.394532 21.832031c-2.589844 6.480469-5.527344 13.832031-5.527344 27.765625 0 13.953125 2.9375 21.304687 5.527344 27.792969 2.363282 5.886718 4.394532 10.976562 4.394532 21.839844 0 10.871093-2.03125 15.960937-4.394532 21.847656-2.085937 5.226562-4.375 11.074218-5.191406 20.425781-5.464844.480469-10.863281 1.183594-16.144531 2.253906.539062-7.496093 2.25-11.871093 4.203125-16.742187 2.589844-6.488282 5.527344-13.832032 5.527344-27.792969 0-13.933594-2.9375-21.289063-5.527344-27.773437zm-55.433594 69.414062c4.414062 0 8 3.585938 8 8s-3.585938 8-8 8-8-3.585938-8-8 3.585938-8 8-8zm-63.191406 0h7.191406c19.320312 0 35.480469 13.769531 39.191406 32h-7.191406c-19.320312 0-35.480469-13.769531-39.191406-32zm58.816406 48h4.375v-3.761719c21.9375-17.621093 49.734375-28.238281 80-28.238281 67.878906 0 123.433594 53.152344 127.59375 120h-16c-4.128906-58.023438-52.539062-104-111.59375-104s-107.464844 45.976562-111.59375 104h-16c2.179688-35 18.425781-66.183594 43.21875-88zm131.65625 88c-3.824219-22.664062-23.539062-40-47.28125-40s-43.449219 17.335938-47.28125 40h-16.167969c3.960938-31.519531 30.875-56 63.449219-56 8.480469 0 16.617188 1.695312 24.3125 4.871094-.136719 1.039062-.3125 2.058594-.3125 3.128906 0 13.230469 10.769531 24 24 24 2.304688 0 4.488281-.433594 6.601562-1.039062 4.671876 7.679687 7.65625 16.117187 8.757813 25.039062zm-16.417969 0h-61.726562c3.574219-13.769531 15.992187-24 30.863281-24s27.289062 10.230469 30.863281 24zm17.136719-40c-4.414062 0-8-3.585938-8-8s3.585938-8 8-8 8 3.585938 8 8-3.585938 8-8 8zm0-32c-6.375 0-12.144531 2.542969-16.449219 6.609375-9.957031-4.296875-20.527343-6.609375-31.550781-6.609375-41.40625 0-75.566406 31.632812-79.59375 72h-16c4.089844-49.199219 45.355469-88 95.59375-88 20.183594 0 38.902344 6.289062 54.375 16.96875-2.039062-.570312-4.152344-.96875-6.375-.96875zm31.558594 72c-1.207032-12.304688-5.183594-24.015625-11.765625-34.472656 2.648437-3.855469 4.207031-8.511719 4.207031-13.527344 0-3.34375-.695312-6.519531-1.9375-9.414062 14.320312 15.324218 23.691406 35.292968 25.53125 57.414062zm-169.789063 96-10.671875-32h377.804688l-10.671875 32zm370.230469-48h-384c-19.320312 0-35.480469-13.769531-39.191406-32h462.390625c-3.71875 18.230469-19.878907 32-39.199219 32zm40-56c0 4.414062-3.585938 8-8 8s-8-3.585938-8-8 3.585938-8 8-8 8 3.585938 8 8zm-21.304688-19.953125c-6.4375 4.304687-10.695312 11.640625-10.695312 19.953125 0 2.816406.574219 5.488281 1.472656 8h-1.878906c-1.730469-24.273438-11.136719-46.433594-25.929688-64h2.335938c5.617188 0 11.054688-.710938 16.304688-1.9375 8.261718 11.625 14.421874 24.351562 18.390624 37.984375zm-34.695312-52.046875h-7.433594c3.890625-27.105469 27.265625-48 55.433594-48h7.433594c-3.898438 27.105469-27.265625 48-55.433594 48zm0 0"/></svg>