<svg height="512pt" viewBox="0 0 512 512" width="512pt" xmlns="http://www.w3.org/2000/svg"><path d="m504.5 256c0 137.242188-111.257812 248.5-248.5 248.5s-248.5-111.257812-248.5-248.5 111.257812-248.5 248.5-248.5 248.5 111.257812 248.5 248.5zm0 0" fill="#d1e7f8"/><path d="m293.839844 77.84375 171.257812 171.257812c4.3125 4.316407 4.3125 11.3125 0 15.628907l-171.300781 171.308593c-4.316406 4.316407-11.316406 4.316407-15.632813 0l-171.261718-171.261718c-4.3125-4.316406-4.3125-11.316406 0-15.632813l171.304687-171.300781c4.316407-4.316406 11.316407-4.316406 15.632813 0zm0 0" fill="#9bc9ff"/><path d="m263.839844 77.84375 171.257812 171.257812c4.3125 4.316407 4.3125 11.3125 0 15.628907l-171.300781 171.308593c-4.316406 4.316407-11.316406 4.316407-15.632813 0l-171.261718-171.261718c-4.3125-4.316406-4.3125-11.316406 0-15.632813l171.304687-171.300781c4.316407-4.316406 11.3125-4.316406 15.632813 0zm0 0" fill="#ffb655"/><path d="m271.269531 230.957031h17.578125c13.535156 0 24.507813-10.96875 24.507813-24.503906h-17.582031c-13.535157 0-24.503907 10.972656-24.503907 24.503906zm0 0" fill="#ff7956"/><path d="m271.269531 230.957031c0-9.492187 5.402344-17.71875 13.292969-21.785156-1.816406-9.367187-6.351562-18.3125-13.609375-25.566406-7.175781 7.179687-11.691406 16.011719-13.546875 25.273437 8.203125 3.960938 13.863281 12.359375 13.863281 22.078125zm0 0" fill="#ff7956"/><path d="m276 323.734375c-6.683594 0-13.027344-2.933594-17.355469-8.03125l-7.597656-8.945313c-11.90625-14.023437-18.441406-31.820312-18.441406-50.214843 0-14.132813 11.453125-25.585938 25.582031-25.585938h35.621094c14.132812 0 25.585937 11.453125 25.585937 25.585938 0 18.394531-6.535156 36.191406-18.445312 50.214843l-7.597657 8.945313c-4.324218 5.097656-10.667968 8.03125-17.351562 8.03125zm0 0" fill="#ff7956"/><path d="m256 323.734375c-6.683594 0-13.027344-2.933594-17.355469-8.03125l-7.597656-8.945313c-11.90625-14.023437-18.441406-31.820312-18.441406-50.214843 0-14.132813 11.453125-25.585938 25.582031-25.585938h35.621094c14.132812 0 25.585937 11.453125 25.585937 25.585938 0 18.394531-6.535156 36.191406-18.445312 50.214843l-7.597657 8.945313c-4.324218 5.097656-10.667968 8.03125-17.351562 8.03125zm0 0" fill="#ff7956"/><path d="m256.269531 230.957031h-17.582031c-13.53125 0-24.503906-10.96875-24.503906-24.503906h17.582031c13.53125 0 24.503906 10.972656 24.503906 24.503906zm0 0" fill="#b6e892"/><path d="m256.269531 230.957031h17.578125c13.535156 0 24.507813-10.96875 24.507813-24.503906h-17.582031c-13.535157 0-24.503907 10.972656-24.503907 24.503906zm0 0" fill="#b6e892"/><path d="m256.269531 230.957031c0-9.492187 5.402344-17.71875 13.292969-21.785156-1.816406-9.367187-6.351562-18.3125-13.609375-25.566406-7.175781 7.179687-11.691406 16.011719-13.546875 25.273437 8.203125 3.960938 13.863281 12.359375 13.863281 22.078125zm0 0" fill="#b6e892"/><path d="m256.003906 152.644531-23.113281-23.113281 23.109375-23.109375 23.113281 23.109375zm-61.832031 61.828125-23.113281-23.113281-23.113282 23.113281 23.113282 23.113282zm104.296875-19.363281 23.109375-23.109375-23.105469-23.105469-23.109375 23.109375zm-61.828125-23.105469-23.113281-23.113281-23.105469 23.109375 23.113281 23.113281zm104.292969 65.574219 23.113281-23.113281-23.105469-23.105469-23.113281 23.113281zm-44.566406 40.367187 2.101562 2.101563 23.105469-23.109375-23.105469-23.105469-5.621094 5.621094c4.066406 4.53125 6.546875 10.519531 6.546875 17.089844 0 7.296875-1.042969 14.492187-3.027343 21.402343zm-77.214844-38.492187-5.617188-5.617187-23.113281 23.109374 23.105469 23.109376 2.105468-2.109376c-1.984374-6.910156-3.027343-14.105468-3.027343-21.402343 0-6.570313 2.476562-12.558594 6.546875-17.089844zm-90.566406-5.621094-23.105469 23.109375 23.113281 23.113282 23.105469-23.105469zm189.242187 65.574219 23.113281 23.117188 23.105469-23.109376-23.113281-23.113281zm-42.472656 42.476562 23.113281 23.113282 23.113281-23.113282-23.113281-23.113281zm108.050781-108.054687-23.113281 23.113281 23.113281 23.113282 23.113281-23.113282zm-212.347656 42.480469-23.105469 23.105468 23.105469 23.105469 23.105468-23.105469zm42.46875 42.464844-23.105469 23.105468 23.105469 23.109375 23.109375-23.105469zm19.363281 65.578124 23.109375 23.109376 23.109375-23.105469-23.113281-23.113281zm0 0" fill="#ee8700"/><path d="m37.5 256c0-132.203125 103.242188-240.277344 233.5-248.035156-4.964844-.296875-9.960938-.464844-15-.464844-137.242188 0-248.5 111.257812-248.5 248.5s111.257812 248.5 248.5 248.5c5.039062 0 10.035156-.167969 15-.464844-130.257812-7.757812-233.5-115.832031-233.5-248.035156zm0 0" fill="#9bc9ff"/><path d="m106.902344 264.777344c-4.3125-4.316406-4.3125-11.316406 0-15.632813l164.121094-164.117187-7.1875-7.183594c-4.316407-4.316406-11.3125-4.316406-15.628907 0l-171.304687 171.300781c-4.3125 4.316407-4.3125 11.316407 0 15.632813l171.261718 171.261718c4.316407 4.316407 11.316407 4.316407 15.632813 0l7.183594-7.1875zm0 0" fill="#ff7956"/><path d="m268.644531 315.703125-7.597656-8.945313c-11.90625-14.023437-18.441406-31.820312-18.441406-50.214843 0-14.132813 11.453125-25.585938 25.582031-25.585938h-30c-14.128906 0-25.582031 11.453125-25.582031 25.585938 0 18.394531 6.535156 36.191406 18.441406 50.214843l7.597656 8.945313c4.328125 5.097656 10.671875 8.03125 17.355469 8.03125 5.558594 0 10.878906-2.035156 15-5.648437-.835938-.730469-1.625-1.523438-2.355469-2.382813zm0 0" fill="#ff3f62"/><path d="m229.183594 206.453125h-15c0 13.535156 10.972656 24.503906 24.503906 24.503906h15c-13.53125 0-24.503906-10.96875-24.503906-24.503906zm0 0" fill="#7ccc92"/><path d="m295.773438 206.453125h-15c-13.535157 0-24.503907 10.972656-24.503907 24.503906h15c0-13.53125 10.96875-24.503906 24.503907-24.503906zm0 0" fill="#7ccc92"/><path d="m257.40625 208.878906c1.09375-5.449218 3.113281-10.75 6.050781-15.652344-2.054687-3.429687-4.546875-6.664062-7.5-9.621093-7.179687 7.179687-11.695312 16.011719-13.550781 25.273437 8.203125 3.960938 13.863281 12.359375 13.863281 22.078125 0-6.925781 2.882813-13.167969 7.5-17.621093-1.863281-1.800782-4-3.316407-6.363281-4.457032zm0 0" fill="#7ccc92"/><g fill="#cd2a00"><path d="m337.828125 299.40625 13.105469-13.105469-10-10-23.105469 23.105469 23.113281 23.117188 10-10zm0 0"/><path d="m298.472656 148.894531-23.109375 23.109375 23.105469 23.105469 10-10-13.105469-13.105469 13.109375-13.109375zm0 0"/><path d="m266.003906 142.644531-13.113281-13.113281 13.109375-13.109375-10-10-23.109375 23.109375 23.113281 23.113281zm0 0"/><path d="m380.296875 256.941406 13.109375-13.113281-10-10-23.109375 23.113281 23.109375 23.113282 10-10zm0 0"/><path d="m296.367188 277.945312 2.101562 2.101563 20.878906-20.882813c.03125-.871093.046875-1.746093.046875-2.621093 0-.625-.03125-1.242188-.074219-1.855469l-20.851562-20.855469-5.621094 5.621094c4.066406 4.53125 6.546875 10.519531 6.546875 17.089844 0 7.296875-1.042969 14.492187-3.027343 21.402343zm0 0"/><path d="m340.941406 191.359375-23.113281 23.113281 23.105469 23.105469 10-10-13.105469-13.105469 13.113281-13.113281zm0 0"/><path d="m295.355469 341.882812 13.113281-13.113281-10-10-23.113281 23.113281 23.113281 23.113282 10-10zm0 0"/><path d="m210.421875 341.878906 13.105469-13.105468-10-10-23.105469 23.105468 23.105469 23.109375 10-10zm0 0"/><path d="m252.890625 384.351562 13.105469-13.109374-10-10-23.105469 23.109374 23.109375 23.109376 10-10zm0 0"/><path d="m167.953125 299.414062 13.105469-13.105468-10-10-23.105469 23.105468 23.105469 23.105469 10-10zm0 0"/><path d="m181.058594 227.585938-13.113282-13.113282 13.113282-13.113281-10-10-23.113282 23.113281 23.113282 23.113282zm0 0"/><path d="m223.535156 185.113281-13.113281-13.113281 13.105469-13.109375-10-10-23.105469 23.109375 23.113281 23.113281zm0 0"/><path d="m125.480469 256.941406 13.105469-13.105468-10-10.003907-23.105469 23.109375 23.113281 23.113282 10-10zm0 0"/><path d="m212.679688 254.691406c.417968-5.839844 2.789062-11.136718 6.472656-15.238281l-5.621094-5.617187-23.109375 23.113281 23.101563 23.105469 2.109374-2.109376c-1.746093-6.074218-2.761718-12.371093-2.980468-18.765624l-2.230469-2.230469zm0 0"/></g><path d="m440.398438 243.796875-171.257813-171.257813c-7.234375-7.234374-19.003906-7.234374-26.238281 0l-171.300782 171.304688c-7.234374 7.230469-7.234374 19.003906 0 26.234375l171.261719 171.265625c3.617188 3.613281 8.367188 5.421875 13.117188 5.421875s9.503906-1.808594 13.121093-5.425781l171.296876-171.304688c7.234374-7.234375 7.234374-19.003906 0-26.238281zm-10.605469 15.632813-171.300781 171.304687c-1.386719 1.386719-3.640626 1.386719-5.023438 0l-171.261719-171.261719c-1.386719-1.382812-1.386719-3.636718 0-5.023437l171.304688-171.304688c.691406-.691406 1.601562-1.039062 2.511719-1.039062.910156 0 1.820312.347656 2.511718 1.039062l171.257813 171.261719c1.386719 1.382812 1.386719 3.636719 0 5.023438zm0 0"/><path d="m205.105469 256.542969c0 20.148437 7.183593 39.707031 20.226562 55.066406l7.597657 8.949219c5.761718 6.785156 14.171874 10.675781 23.070312 10.675781s17.308594-3.890625 23.070312-10.675781l7.597657-8.949219c13.042969-15.359375 20.226562-34.917969 20.226562-55.066406 0-10.382813-4.804687-19.660157-12.308593-25.730469 6.890624-5.875 11.269531-14.617188 11.269531-24.359375v-7.5h-25.082031c-2.078126 0-4.113282.199219-6.085938.582031-2.816406-7.945312-7.375-15.179687-13.425781-21.230468l-5.304688-5.304688-5.304687 5.304688c-6.019532 6.019531-10.566406 13.214843-13.386719 21.121093-1.789063-.308593-3.625-.472656-5.5-.472656h-25.082031v7.5c0 9.621094 4.269531 18.265625 11.011718 24.136719-7.664062 6.0625-12.589843 15.445312-12.589843 25.953125zm84.003906-42.589844c-2.777344 5.625-8.574219 9.503906-15.261719 9.503906h-8.332031c2.773437-5.625 8.570313-9.503906 15.257813-9.503906zm-33.152344-18.574219c2.152344 3.230469 3.839844 6.742188 5.023438 10.445313-1.722657 1.359375-3.300781 2.890625-4.710938 4.570312-1.546875-1.839843-3.292969-3.503906-5.210937-4.953125 1.175781-3.566406 2.824218-6.945312 4.898437-10.0625zm-24.191406 18.574219c6.6875 0 12.480469 3.878906 15.257813 9.503906h-8.335938c-6.683594 0-12.480469-3.878906-15.257812-9.503906zm42.046875 24.503906c9.96875 0 18.082031 8.113281 18.082031 18.085938 0 16.597656-5.914062 32.707031-16.660156 45.359375l-7.597656 8.945312c-2.90625 3.425782-7.148438 5.386719-11.636719 5.386719s-8.730469-1.960937-11.636719-5.382813l-7.597656-8.949218c-10.746094-12.652344-16.660156-28.761719-16.660156-45.359375 0-9.972657 8.113281-18.085938 18.082031-18.085938zm0 0"/><path d="m234.496094 255.066406h15v15h-15zm0 0"/><path d="m262.496094 255.066406h15v15h-15zm0 0"/><path d="m248.496094 280.191406h15v15h-15zm0 0"/><path d="m437.019531 74.980469c-48.351562-48.351563-112.640625-74.980469-181.019531-74.980469s-132.667969 26.628906-181.019531 74.980469c-48.351563 48.351562-74.980469 112.640625-74.980469 181.019531s26.628906 132.667969 74.980469 181.019531c48.351562 48.351563 112.640625 74.980469 181.019531 74.980469s132.667969-26.628906 181.019531-74.980469c48.351563-48.351562 74.980469-112.640625 74.980469-181.019531s-26.628906-132.667969-74.980469-181.019531zm-181.019531 422.019531c-132.886719 0-241-108.113281-241-241s108.113281-241 241-241 241 108.113281 241 241-108.113281 241-241 241zm0 0"/><path d="m222.058594 84.515625-2.898438-14.71875c-36.933594 7.269531-70.597656 25.253906-97.351562 52.011719-26.757813 26.753906-44.742188 60.417968-52.011719 97.351562l14.71875 2.898438c13.738281-69.816406 67.726563-123.804688 137.542969-137.542969zm0 0"/><path d="m427.476562 222.003906 14.714844-2.902344c-7.273437-36.90625-25.253906-70.550781-51.996094-97.292968-26.742187-26.746094-60.386718-44.726563-97.296874-52l-2.902344 14.71875c69.765625 13.746094 123.730468 67.710937 137.480468 137.476562zm0 0"/><path d="m292.207031 427.027344 3.089844 14.675781c73.46875-15.472656 130.9375-72.941406 146.410156-146.410156l-14.679687-3.09375c-14.246094 67.65625-67.167969 120.578125-134.820313 134.828125zm0 0"/><path d="m84.984375 292.253906-14.679687 3.097656c15.484374 73.414063 72.925781 130.855469 146.34375 146.339844l3.09375-14.675781c-67.601563-14.257813-120.5-67.15625-134.757813-134.761719zm0 0"/><path d="m210.175781 181.148438-9.148437-9.148438 12.5-12.503906 12.507812 12.507812-9.144531 9.144532 10.605469 10.609374 19.753906-19.753906-33.722656-33.71875-33.714844 33.714844 19.757812 19.757812zm0 0"/><path d="m289.71875 129.53125-33.71875-33.71875-33.71875 33.71875 33.722656 33.71875zm-33.71875-12.503906 12.507812 12.503906-12.503906 12.503906-12.507812-12.503906zm0 0"/><path d="m340.933594 248.1875 33.71875-33.722656-33.710938-33.710938-33.71875 33.71875zm12.507812-33.722656-12.507812 12.507812-12.5-12.5 12.507812-12.507812zm0 0"/><path d="m204.777344 214.472656-33.71875-33.71875-33.71875 33.71875 33.71875 33.722656zm-33.71875-12.503906 12.507812 12.503906-12.507812 12.507813-12.503906-12.507813zm0 0"/><path d="m284.507812 191.757812 10.605469-10.609374-9.144531-9.144532 12.507812-12.503906 12.496094 12.5-9.152344 9.148438 10.609376 10.609374 19.757812-19.757812-33.710938-33.714844-33.71875 33.71875zm0 0"/><path d="m264.75 341.882812 33.71875 33.722657 33.71875-33.722657-33.71875-33.722656zm33.71875 12.507813-12.507812-12.507813 12.507812-12.507812 12.507812 12.507812zm0 0"/><path d="m128.585938 223.226562-33.710938 33.714844 33.71875 33.71875 33.710938-33.710937zm-12.5 33.710938 12.5-12.496094 12.507812 12.503906-12.5 12.5zm0 0"/><path d="m349.6875 256.941406 33.71875 33.71875 33.722656-33.722656-33.722656-33.71875zm33.71875 12.503906-12.503906-12.503906 12.503906-12.507812 12.507812 12.503906zm0 0"/><path d="m307.222656 299.40625 33.71875 33.722656 33.714844-33.714844-33.71875-33.71875zm33.71875 12.507812-12.507812-12.507812 12.5-12.5 12.507812 12.507812zm0 0"/><path d="m222.28125 384.351562 33.71875 33.714844 33.714844-33.707031-33.71875-33.722656zm33.71875 12.503907-12.503906-12.503907 12.5-12.5 12.503906 12.503907zm0 0"/><path d="m171.0625 265.699219-33.714844 33.714843 33.710938 33.710938 33.714844-33.710938zm-12.5 33.714843 12.5-12.5 12.496094 12.5-12.5 12.5zm0 0"/><path d="m213.527344 308.167969-33.714844 33.710937 33.714844 33.71875 33.714844-33.714844zm0 46.214843-12.5-12.503906 12.5-12.5 12.5 12.503906zm0 0"/><path d="m487 256h-15c0-57.695312-22.46875-111.9375-63.265625-152.734375-28.996094-28.996094-65.226563-49.039063-104.777344-57.957031l3.300781-14.632813c42.320313 9.542969 81.082032 30.976563 112.085938 61.984375 43.628906 43.628906 67.65625 101.636719 67.65625 163.339844zm-192.515625-212.605469c-4.734375-.84375-9.5625-1.542969-14.347656-2.070312l1.644531-14.910157c5.117188.566407 10.277344 1.3125 15.34375 2.21875zm-23.980469-2.917969c-4.800781-.316406-9.683594-.476562-14.503906-.476562v-15c5.148438 0 10.359375.171875 15.488281.507812zm0 0" fill="#fff"/></svg>